<svg xmlns="http://www.w3.org/2000/svg" xmlns:xlink="http://www.w3.org/1999/xlink" width="100" zoomAndPan="magnify" viewBox="0 0 75 74.999997" height="100" preserveAspectRatio="xMidYMid meet" version="1.2"><defs><clipPath id="31a9078e27"><path d="M 3 27 L 46 27 L 46 70 L 3 70 Z M 3 27 "/></clipPath><clipPath id="c010a1a178"><path d="M -4.796875 33.859375 L 24.8125 6.492188 L 65.863281 50.910156 L 36.253906 78.277344 Z M -4.796875 33.859375 "/></clipPath><clipPath id="fa3c8dc3b6"><path d="M -4.796875 33.859375 L 24.8125 6.492188 L 65.863281 50.910156 L 36.253906 78.277344 Z M -4.796875 33.859375 "/></clipPath><clipPath id="fdec4485a5"><path d="M 25 7 L 67 7 L 67 50 L 25 50 Z M 25 7 "/></clipPath><clipPath id="d5305daf02"><path d="M 16.46875 14.203125 L 46.078125 -13.164062 L 87.132812 31.253906 L 57.523438 58.621094 Z M 16.46875 14.203125 "/></clipPath><clipPath id="4fabe25352"><path d="M 16.46875 14.203125 L 46.078125 -13.164062 L 87.132812 31.253906 L 57.523438 58.621094 Z M 16.46875 14.203125 "/></clipPath></defs><g id="0ddfcf5afe"><g clip-rule="nonzero" clip-path="url(#31a9078e27)"><g clip-rule="nonzero" clip-path="url(#c010a1a178)"><g clip-rule="nonzero" clip-path="url(#fa3c8dc3b6)"><path style=" stroke:none;fill-rule:nonzero;fill:#18cb96;fill-opacity:1;" d="M 45.441406 28.960938 L 9.515625 27.363281 C 2.578125 27.054688 1.40625 40.570312 9.625 40.792969 L 31.980469 41.398438 L 30.273438 63.894531 C 29.753906 70.742188 43.113281 71.464844 43.492188 64.503906 Z M 45.441406 28.960938 "/></g></g></g><g clip-rule="nonzero" clip-path="url(#fdec4485a5)"><g clip-rule="nonzero" clip-path="url(#d5305daf02)"><g clip-rule="nonzero" clip-path="url(#4fabe25352)"><path style=" stroke:none;fill-rule:nonzero;fill:#18cb96;fill-opacity:1;" d="M 66.707031 9.300781 L 30.78125 7.707031 C 23.84375 7.398438 22.671875 20.914062 30.894531 21.136719 L 53.246094 21.742188 L 51.539062 44.238281 C 51.019531 51.085938 64.378906 51.808594 64.761719 44.847656 Z M 66.707031 9.300781 "/></g></g></g></g></svg>