<svg xmlns="http://www.w3.org/2000/svg" xmlns:xlink="http://www.w3.org/1999/xlink" width="500" zoomAndPan="magnify" viewBox="0 0 375 149.999998" height="200" preserveAspectRatio="xMidYMid meet" version="1.2"><defs><clipPath id="ce823619f4"><path d="M 304 32 L 344 32 L 344 73 L 304 73 Z M 304 32 "/></clipPath><clipPath id="c77b6dbeb4"><path d="M 296.144531 38.949219 L 324.234375 12.984375 L 363.433594 55.394531 L 335.34375 81.359375 Z M 296.144531 38.949219 "/></clipPath><clipPath id="9141ed317c"><path d="M 296.144531 38.949219 L 324.234375 12.984375 L 363.433594 55.394531 L 335.34375 81.359375 Z M 296.144531 38.949219 "/></clipPath><clipPath id="9ade20415b"><path d="M 324 13 L 365 13 L 365 54 L 324 54 Z M 324 13 "/></clipPath><clipPath id="7c62d6b3bb"><path d="M 316.507812 20.125 L 344.597656 -5.835938 L 383.796875 36.574219 L 355.707031 62.535156 Z M 316.507812 20.125 "/></clipPath><clipPath id="0f87df10fb"><path d="M 316.507812 20.125 L 344.597656 -5.835938 L 383.796875 36.574219 L 355.707031 62.535156 Z M 316.507812 20.125 "/></clipPath></defs><g id="716a7cbe85"><g clip-rule="nonzero" clip-path="url(#ce823619f4)"><g clip-rule="nonzero" clip-path="url(#c77b6dbeb4)"><g clip-rule="nonzero" clip-path="url(#9141ed317c)"><path style=" stroke:none;fill-rule:nonzero;fill:#ffffff;fill-opacity:1;" d="M 343.917969 34.285156 L 309.753906 32.765625 C 303.15625 32.472656 302.042969 45.324219 309.859375 45.539062 L 331.121094 46.113281 L 329.496094 67.503906 C 329 74.019531 341.707031 74.707031 342.066406 68.085938 Z M 343.917969 34.285156 "/></g></g></g><g clip-rule="nonzero" clip-path="url(#9ade20415b)"><g clip-rule="nonzero" clip-path="url(#7c62d6b3bb)"><g clip-rule="nonzero" clip-path="url(#0f87df10fb)"><path style=" stroke:none;fill-rule:nonzero;fill:#ffffff;fill-opacity:1;" d="M 364.28125 15.460938 L 330.117188 13.945312 C 323.519531 13.648438 322.40625 26.503906 330.222656 26.71875 L 351.484375 27.292969 L 349.859375 48.683594 C 349.363281 55.199219 362.070312 55.886719 362.429688 49.265625 Z M 364.28125 15.460938 "/></g></g></g><g style="fill:#ffffff;fill-opacity:1;"><g transform="translate(18.181791, 112.670623)"><path style="stroke:none" d="M 62.875 -15.765625 C 62.875 -15.085938 62.769531 -14.367188 62.5625 -13.609375 C 62.351562 -12.859375 61.941406 -12.144531 61.328125 -11.46875 C 59.285156 -9.082031 56.796875 -6.929688 53.859375 -5.015625 C 50.921875 -3.109375 47.8125 -1.625 44.53125 -0.5625 C 41.257812 0.5 38.019531 1.03125 34.8125 1.03125 C 28.050781 1.03125 22.195312 -0.398438 17.25 -3.265625 C 12.300781 -6.140625 8.476562 -10.148438 5.78125 -15.296875 C 3.082031 -20.453125 1.804688 -26.410156 1.953125 -33.171875 C 1.953125 -39.796875 3.332031 -45.582031 6.09375 -50.53125 C 8.851562 -55.476562 12.722656 -59.332031 17.703125 -62.09375 C 22.691406 -64.863281 28.5 -66.25 35.125 -66.25 C 39.625 -66.25 44.078125 -65.425781 48.484375 -63.78125 C 52.890625 -62.144531 56.59375 -59.722656 59.59375 -56.515625 C 61.019531 -55.015625 61.664062 -53.515625 61.53125 -52.015625 C 61.394531 -50.515625 60.765625 -49.300781 59.640625 -48.375 C 58.515625 -47.457031 57.148438 -47.03125 55.546875 -47.09375 C 53.941406 -47.164062 52.390625 -47.988281 50.890625 -49.5625 C 48.703125 -51.875 46.222656 -53.539062 43.453125 -54.5625 C 40.691406 -55.59375 37.914062 -56.109375 35.125 -56.109375 C 30.882812 -56.109375 27.144531 -55.132812 23.90625 -53.1875 C 20.664062 -51.25 18.15625 -48.535156 16.375 -45.046875 C 14.601562 -41.566406 13.71875 -37.507812 13.71875 -32.875 C 13.789062 -28.289062 14.710938 -24.222656 16.484375 -20.671875 C 18.253906 -17.128906 20.726562 -14.347656 23.90625 -12.328125 C 27.082031 -10.316406 30.753906 -9.3125 34.921875 -9.3125 C 37.921875 -9.3125 40.90625 -9.976562 43.875 -11.3125 C 46.84375 -12.644531 49.316406 -14.472656 51.296875 -16.796875 L 51.296875 -27.234375 L 36.34375 -27.234375 C 34.4375 -27.234375 33.019531 -27.742188 32.09375 -28.765625 C 31.175781 -29.796875 30.71875 -30.925781 30.71875 -32.15625 C 30.71875 -33.519531 31.175781 -34.726562 32.09375 -35.78125 C 33.019531 -36.84375 34.4375 -37.375 36.34375 -37.375 L 56.71875 -37.375 C 59.113281 -37.375 60.738281 -36.859375 61.59375 -35.828125 C 62.445312 -34.804688 62.875 -33.476562 62.875 -31.84375 Z M 62.875 -15.765625 "/></g></g><g style="fill:#ffffff;fill-opacity:1;"><g transform="translate(86.472318, 112.670623)"><path style="stroke:none" d="M 29.28125 -9.109375 C 31.257812 -9.109375 33.203125 -9.378906 35.109375 -9.921875 C 37.023438 -10.472656 38.800781 -11.398438 40.4375 -12.703125 C 42.007812 -14.128906 43.546875 -14.789062 45.046875 -14.6875 C 46.546875 -14.59375 47.789062 -14.046875 48.78125 -13.046875 C 49.78125 -12.054688 50.28125 -10.828125 50.28125 -9.359375 C 50.28125 -7.898438 49.5625 -6.488281 48.125 -5.125 C 45.738281 -2.800781 42.90625 -1.175781 39.625 -0.25 C 36.34375 0.664062 33 1.09375 29.59375 1.03125 C 24.269531 1.03125 19.578125 -0.0625 15.515625 -2.25 C 11.453125 -4.4375 8.273438 -7.472656 5.984375 -11.359375 C 3.703125 -15.253906 2.5625 -19.757812 2.5625 -24.875 C 2.5625 -30.476562 3.648438 -35.394531 5.828125 -39.625 C 8.015625 -43.851562 11.101562 -47.160156 15.09375 -49.546875 C 19.09375 -51.941406 23.820312 -53.140625 29.28125 -53.140625 C 34.738281 -53.140625 39.378906 -52.03125 43.203125 -49.8125 C 47.023438 -47.59375 49.941406 -44.484375 51.953125 -40.484375 C 53.972656 -36.492188 54.984375 -31.835938 54.984375 -26.515625 C 54.984375 -24.804688 54.640625 -23.351562 53.953125 -22.15625 C 53.273438 -20.96875 51.46875 -20.375 48.53125 -20.375 L 14.4375 -20.375 C 15.394531 -17.03125 17.203125 -14.316406 19.859375 -12.234375 C 22.523438 -10.148438 25.664062 -9.109375 29.28125 -9.109375 Z M 29.390625 -43 C 25.429688 -43 22.117188 -41.753906 19.453125 -39.265625 C 16.796875 -36.773438 15.085938 -33.515625 14.328125 -29.484375 L 44.125 -29.484375 C 43.789062 -33.515625 42.460938 -36.773438 40.140625 -39.265625 C 37.816406 -41.753906 34.234375 -43 29.390625 -43 Z M 29.390625 -43 "/></g></g><g style="fill:#ffffff;fill-opacity:1;"><g transform="translate(145.957658, 112.670623)"><path style="stroke:none" d="M 34.5 -53.140625 C 39.28125 -53.140625 43.34375 -52.097656 46.6875 -50.015625 C 50.03125 -47.929688 52.585938 -45.046875 54.359375 -41.359375 C 56.140625 -37.679688 57.03125 -33.382812 57.03125 -28.46875 L 57.03125 -5.328125 C 57.03125 -3.753906 56.515625 -2.472656 55.484375 -1.484375 C 54.460938 -0.492188 53.03125 0 51.1875 0 C 49.488281 0 48.09375 -0.492188 47 -1.484375 C 45.90625 -2.472656 45.359375 -3.753906 45.359375 -5.328125 L 45.359375 -28.671875 C 45.359375 -32.898438 44.347656 -36.328125 42.328125 -38.953125 C 40.316406 -41.585938 37.128906 -42.90625 32.765625 -42.90625 C 31.460938 -42.90625 29.90625 -42.546875 28.09375 -41.828125 C 26.289062 -41.109375 24.519531 -40.03125 22.78125 -38.59375 C 21.039062 -37.164062 19.609375 -35.359375 18.484375 -33.171875 C 17.359375 -30.984375 16.796875 -28.390625 16.796875 -25.390625 L 16.796875 -5.21875 C 16.796875 -1.738281 14.914062 0 11.15625 0 C 9.382812 0 7.9375 -0.457031 6.8125 -1.375 C 5.6875 -2.300781 5.125 -3.582031 5.125 -5.21875 L 5.125 -46.890625 C 5.125 -48.597656 5.71875 -49.894531 6.90625 -50.78125 C 8.101562 -51.664062 9.453125 -52.109375 10.953125 -52.109375 C 12.390625 -52.109375 13.722656 -51.664062 14.953125 -50.78125 C 16.179688 -49.894531 16.796875 -48.664062 16.796875 -47.09375 L 16.796875 -46.390625 C 19.722656 -49.117188 22.753906 -50.925781 25.890625 -51.8125 C 29.035156 -52.695312 31.90625 -53.140625 34.5 -53.140625 Z M 34.5 -53.140625 "/></g></g><g style="fill:#ffffff;fill-opacity:1;"><g transform="translate(208.105021, 112.670623)"><path style="stroke:none" d="M 50.28125 -52.109375 C 52.050781 -52.109375 53.484375 -51.5625 54.578125 -50.46875 C 55.671875 -49.382812 56.21875 -48.023438 56.21875 -46.390625 L 56.21875 -5.21875 C 56.21875 -3.507812 55.582031 -2.210938 54.3125 -1.328125 C 53.050781 -0.441406 51.738281 0 50.375 0 C 48.875 0 47.523438 -0.457031 46.328125 -1.375 C 45.140625 -2.300781 44.546875 -3.617188 44.546875 -5.328125 L 44.546875 -5.734375 C 41.742188 -3.003906 38.835938 -1.191406 35.828125 -0.296875 C 32.828125 0.585938 30.03125 1.03125 27.4375 1.03125 C 20.34375 1.03125 14.816406 -1.203125 10.859375 -5.671875 C 6.898438 -10.148438 4.921875 -16.210938 4.921875 -23.859375 L 4.921875 -46.390625 C 4.921875 -47.953125 5.429688 -49.296875 6.453125 -50.421875 C 7.472656 -51.546875 8.90625 -52.109375 10.75 -52.109375 C 12.519531 -52.109375 13.9375 -51.546875 15 -50.421875 C 16.0625 -49.296875 16.59375 -47.953125 16.59375 -46.390625 L 16.59375 -23.65625 C 16.59375 -19.21875 17.597656 -15.703125 19.609375 -13.109375 C 21.617188 -10.515625 24.8125 -9.21875 29.1875 -9.21875 C 30.476562 -9.21875 31.992188 -9.570312 33.734375 -10.28125 C 35.472656 -11 37.160156 -12.078125 38.796875 -13.515625 C 40.441406 -14.953125 41.8125 -16.78125 42.90625 -19 C 44 -21.21875 44.546875 -23.828125 44.546875 -26.828125 L 44.546875 -46.390625 C 44.546875 -48.023438 45.019531 -49.382812 45.96875 -50.46875 C 46.925781 -51.5625 48.363281 -52.109375 50.28125 -52.109375 Z M 50.28125 -52.109375 "/></g></g><g style="fill:#ffffff;fill-opacity:1;"><g transform="translate(269.94522, 112.670623)"><path style="stroke:none" d="M 1.328125 -12.1875 C 0.847656 -14.09375 1.289062 -15.625 2.65625 -16.78125 C 4.019531 -17.945312 5.523438 -18.53125 7.171875 -18.53125 C 8.398438 -18.53125 9.488281 -18.171875 10.4375 -17.453125 C 11.394531 -16.734375 12.113281 -15.660156 12.59375 -14.234375 C 13 -13.003906 13.882812 -11.992188 15.25 -11.203125 C 16.613281 -10.421875 18.203125 -9.859375 20.015625 -9.515625 C 21.828125 -9.179688 23.65625 -9.015625 25.5 -9.015625 C 29.1875 -9.015625 32.15625 -9.675781 34.40625 -11 C 36.65625 -12.332031 37.78125 -14.023438 37.78125 -16.078125 C 37.78125 -17.503906 37.179688 -18.554688 35.984375 -19.234375 C 34.796875 -19.921875 33.226562 -20.398438 31.28125 -20.671875 C 29.332031 -20.953125 27.265625 -21.160156 25.078125 -21.296875 C 22.210938 -21.566406 19.394531 -21.90625 16.625 -22.3125 C 13.863281 -22.726562 11.359375 -23.429688 9.109375 -24.421875 C 6.859375 -25.410156 5.050781 -26.875 3.6875 -28.8125 C 2.320312 -30.757812 1.640625 -33.410156 1.640625 -36.765625 C 1.640625 -40.035156 2.59375 -42.898438 4.5 -45.359375 C 6.414062 -47.816406 9.113281 -49.726562 12.59375 -51.09375 C 16.070312 -52.457031 20.097656 -53.140625 24.671875 -53.140625 C 27.335938 -53.140625 30.207031 -52.882812 33.28125 -52.375 C 36.351562 -51.863281 39.203125 -50.820312 41.828125 -49.25 C 44.453125 -47.675781 46.378906 -45.253906 47.609375 -41.984375 C 48.085938 -40.617188 48.050781 -39.40625 47.5 -38.34375 C 46.957031 -37.289062 46.15625 -36.488281 45.09375 -35.9375 C 44.039062 -35.394531 42.96875 -35.125 41.875 -35.125 C 40.644531 -35.125 39.640625 -35.359375 38.859375 -35.828125 C 38.078125 -36.304688 37.410156 -37.128906 36.859375 -38.296875 C 36.242188 -39.722656 35.203125 -40.773438 33.734375 -41.453125 C 32.265625 -42.140625 30.691406 -42.566406 29.015625 -42.734375 C 27.347656 -42.910156 25.898438 -43 24.671875 -43 C 21.265625 -43 18.519531 -42.414062 16.4375 -41.25 C 14.351562 -40.09375 13.3125 -38.5625 13.3125 -36.65625 C 13.3125 -35.019531 13.859375 -33.910156 14.953125 -33.328125 C 16.046875 -32.742188 17.53125 -32.398438 19.40625 -32.296875 C 21.28125 -32.203125 23.378906 -32.015625 25.703125 -31.734375 C 28.566406 -31.398438 31.394531 -31.023438 34.1875 -30.609375 C 36.988281 -30.203125 39.550781 -29.503906 41.875 -28.515625 C 44.195312 -27.523438 46.039062 -26.054688 47.40625 -24.109375 C 48.769531 -22.160156 49.453125 -19.484375 49.453125 -16.078125 C 49.453125 -12.734375 48.441406 -9.765625 46.421875 -7.171875 C 44.410156 -4.578125 41.613281 -2.5625 38.03125 -1.125 C 34.445312 0.3125 30.269531 1.03125 25.5 1.03125 C 23.382812 1.03125 21.078125 0.875 18.578125 0.5625 C 16.085938 0.257812 13.664062 -0.347656 11.3125 -1.265625 C 8.957031 -2.191406 6.890625 -3.523438 5.109375 -5.265625 C 3.335938 -7.015625 2.078125 -9.320312 1.328125 -12.1875 Z M 1.328125 -12.1875 "/></g></g></g></svg>