<svg xmlns="http://www.w3.org/2000/svg" viewBox="0 0 300 300" xml:space="preserve">
    <path fill="#9AE8CE"
        d="M791.269 2146.512h82.715v12.171h-82.715zM902.591 2110.684H729.346v11.338c0 4.893 2.575 8.66 7.436 8.66h165.809v-19.998z" />
    <path fill="#F4F4F4"
        d="M824.083 2130.682h17.092v15.83h-17.092zM835.427 2120.989a2.803 2.803 0 0 1-2.802 2.802 2.802 2.802 0 0 1 0-5.604 2.801 2.801 0 0 1 2.802 2.802z" />
    <path fill="#AA6148"
        d="M925.805 1963.614H739.447c-5.578 0-10.101 4.524-10.101 10.102v11.767h206.561v-11.767c0-5.579-4.524-10.102-10.102-10.102z" />
    <path fill="#AEF4DB"
        d="M742.7 2122.022v-11.338h-13.228v11.338c0 4.893 2.575 8.66 7.436 8.66h13.228c-4.862 0-7.436-3.767-7.436-8.66z" />
    <path fill="#BC715C"
        d="M752.801 1963.614h-13.228c-5.578 0-10.101 4.524-10.101 10.102v11.767H742.7v-11.767c0-5.579 4.523-10.102 10.101-10.102z" />
    <path fill="#F4F4F4"
        d="M918.985 1974.548a3.068 3.068 0 1 1-6.138 0 3.07 3.07 0 0 1 6.138 0zM906.167 1974.548a3.068 3.068 0 0 1-3.07 3.071 3.07 3.07 0 1 1 3.07-3.071zM892.921 1974.548a3.07 3.07 0 1 1-6.139.003 3.07 3.07 0 0 1 6.139-.003zM902.59 2076.29h66.634v84.708H902.59z" />
    <path fill="#9AE8CE"
        d="M902.591 2167.656a9.124 9.124 0 0 0 9.125 9.124H960.1a9.125 9.125 0 0 0 9.124-9.124v-6.658h-66.633v6.658zM969.224 2072.091c0-5.037-4.086-9.124-9.124-9.124h-48.383a9.126 9.126 0 0 0-9.125 9.124v4.199h66.633v-4.199z" />
    <path fill="#AEF4DB"
        d="M912.846 2167.656v-6.658h-10.255v6.658a9.124 9.124 0 0 0 9.125 9.124h10.255a9.123 9.123 0 0 1-9.125-9.124zM921.971 2062.967h-10.255a9.126 9.126 0 0 0-9.125 9.124v4.199h10.255v-4.199a9.126 9.126 0 0 1 9.125-9.124z" />
    <path fill="#F4F4F4"
        d="M938.22 2168.888a2.31 2.31 0 0 1-2.312 2.312 2.31 2.31 0 1 1 0-4.621 2.309 2.309 0 0 1 2.312 2.309zM911.715 2062.967h24.192v-77.485H729.346v125.202H902.59V2072.091a9.126 9.126 0 0 1 9.125-9.124z" />
    <path fill="#FFDA88"
        d="M872.538 2039.145c0 22.039-17.869 39.909-39.911 39.909s-39.911-17.87-39.911-39.909c0-22.042 17.869-39.912 39.911-39.912s39.911 17.87 39.911 39.912z" />
    <path fill="#FFE2A9"
        d="M806.96 2039.145c0-19.606 14.151-35.878 32.79-39.242-2.315-.419-4.688-.67-7.122-.67-22.042 0-39.911 17.87-39.911 39.912 0 22.039 17.869 39.909 39.911 39.909 2.435 0 4.807-.254 7.122-.67-18.639-3.364-32.79-19.633-32.79-39.239z" />
    <path fill="#AA6148"
        d="M845.469 2051.936c-9.933 9.939-23.687 12.295-30.712 5.273-7.019-7.028-4.662-20.775 5.277-30.711 9.933-9.936 23.681-12.298 30.708-5.271 7.025 7.025 4.666 20.776-5.273 30.709z" />
    <path fill="#BC715C"
        d="M825.101 2031.149c8.569-8.569 19.961-11.486 27.443-7.63-.526-.844-1.119-1.651-1.836-2.368-7.028-7.024-20.775-4.665-30.709 5.274-9.939 9.933-12.295 23.684-5.276 30.708a12.9 12.9 0 0 0 3.266 2.356c-4.598-7.444-1.811-19.423 7.112-28.34z" />
    <path fill="#BC715C"
        d="M817.595 2058.403c-2.288 0-4.175-1.828-4.246-4.14a4.265 4.265 0 0 1 4.119-4.405l.546-.018c6.945-.207 10.113-.301 11.394-11.832 1.719-15.522 13.128-18.51 18.921-17.902 2.339.237 4.039 2.336 3.803 4.683a4.256 4.256 0 0 1-4.624 3.821c-1.417-.109-8.495-.106-9.655 10.346-2.097 18.903-12.207 19.205-19.588 19.429l-.537.018h-.133z" />
    <path fill="#AA6148" d="M814.97 2090.006h35.527v9.449H814.97zM918.145 2138.595h35.527v9.449h-35.527z" />
    <path fill="#F9F9F9" d="M902.59 2076.29h10.256v84.708H902.59zM729.346 1985.482h13.296v125.201h-13.296z" />
    <g>
        <path fill="#F9F9F9" d="M824.083 2130.682h8.651v15.83h-8.651z" />
    </g>
    <g>
        <path fill="#AEF4DB" d="M791.269 2146.512h8.651v12.171h-8.651z" />
    </g>
    <g>
        <path fill="#161616"
            d="M873.984 2163.218h-82.715a4.535 4.535 0 0 1-4.535-4.535v-12.171a4.535 4.535 0 0 1 4.535-4.535h82.715a4.535 4.535 0 0 1 4.535 4.535v12.171a4.535 4.535 0 0 1-4.535 4.535zm-78.18-9.07h73.644v-3.101h-73.644v3.101z" />
        <path fill="#161616"
            d="M841.174 2151.047h-17.092a4.535 4.535 0 0 1-4.535-4.535v-15.83a4.535 4.535 0 0 1 4.535-4.535h17.092a4.535 4.535 0 0 1 4.535 4.535v15.83a4.534 4.534 0 0 1-4.535 4.535zm-12.556-9.071h8.021v-6.759h-8.021v6.759zM835.427 2120.989a2.803 2.803 0 0 1-2.802 2.802 2.802 2.802 0 0 1 0-5.604 2.801 2.801 0 0 1 2.802 2.802zM935.907 1990.017H729.346a4.535 4.535 0 0 1-4.535-4.535v-11.767c0-8.07 6.565-14.637 14.637-14.637h186.358c8.071 0 14.637 6.567 14.637 14.637v11.767a4.537 4.537 0 0 1-4.536 4.535zm-202.026-9.07h197.49v-7.231a5.573 5.573 0 0 0-5.566-5.566H739.447a5.573 5.573 0 0 0-5.566 5.566v7.231z" />
        <path fill="#161616"
            d="M918.985 1974.548a3.068 3.068 0 1 1-6.138 0 3.07 3.07 0 0 1 6.138 0zM906.167 1974.548a3.068 3.068 0 0 1-3.07 3.071 3.07 3.07 0 1 1 3.07-3.071zM892.921 1974.548a3.07 3.07 0 1 1-6.139.003 3.07 3.07 0 0 1 6.139-.003zM969.222 2165.533H902.59a4.535 4.535 0 0 1-4.535-4.535v-84.708a4.535 4.535 0 0 1 4.535-4.535h66.633a4.535 4.535 0 0 1 4.535 4.535v43.931a4.535 4.535 0 0 1-9.07 0v-39.395h-57.562v75.637h57.562v-15.319a4.535 4.535 0 0 1 9.07 0v19.854a4.535 4.535 0 0 1-4.536 4.535z" />
        <path fill="#161616"
            d="M960.099 2181.316h-48.382c-7.532 0-13.661-6.127-13.661-13.659v-6.658a4.535 4.535 0 0 1 4.535-4.535h66.633a4.535 4.535 0 0 1 4.535 4.535v6.658c0 7.532-6.128 13.659-13.66 13.659zm-52.972-15.783v2.123a4.595 4.595 0 0 0 4.59 4.589h48.382a4.594 4.594 0 0 0 4.59-4.589v-2.123h-57.562zM969.224 2080.825h-66.633a4.535 4.535 0 0 1-4.535-4.535v-4.199c0-7.532 6.128-13.659 13.661-13.659h48.382c7.532 0 13.661 6.127 13.661 13.659v4.199a4.537 4.537 0 0 1-4.536 4.535zm-62.086-9.07h57.538a4.595 4.595 0 0 0-4.578-4.252h-48.382a4.595 4.595 0 0 0-4.578 4.252z" />
        <path fill="#161616"
            d="M938.22 2168.888a2.311 2.311 0 1 1-4.622.002 2.311 2.311 0 0 1 4.622-.002zM902.59 2115.219H729.346a4.535 4.535 0 0 1-4.535-4.535v-86.462a4.535 4.535 0 0 1 9.07 0v81.926h164.173v-34.057c0-7.532 6.128-13.659 13.661-13.659h19.656v-68.415h-197.49v13.281a4.535 4.535 0 0 1-9.07 0v-17.817a4.535 4.535 0 0 1 4.535-4.535h206.561a4.535 4.535 0 0 1 4.535 4.535v77.485a4.535 4.535 0 0 1-4.535 4.535h-24.192a4.594 4.594 0 0 0-4.59 4.589v38.592a4.536 4.536 0 0 1-4.535 4.537z" />
        <path fill="#161616"
            d="M902.591 2135.218H736.782c-7.048 0-11.972-5.427-11.972-13.196v-11.339a4.535 4.535 0 0 1 4.535-4.535H902.59a4.535 4.535 0 0 1 4.535 4.535v19.999a4.534 4.534 0 0 1-4.534 4.536zm-168.71-19.999v6.803c0 2.737.976 4.125 2.901 4.125h161.274v-10.928H733.881zM832.628 2083.589c-24.508 0-44.446-19.937-44.446-44.444 0-24.508 19.938-44.447 44.446-44.447s44.446 19.94 44.446 44.447-19.939 44.444-44.446 44.444zm0-79.821c-19.506 0-35.375 15.871-35.375 35.377s15.869 35.374 35.375 35.374 35.375-15.868 35.375-35.374-15.87-35.377-35.375-35.377z" />
        <path fill="#161616"
            d="M825.302 2065.77c-5.321 0-10.215-1.769-13.875-5.427-8.928-8.935-6.61-25.243 5.275-37.127 11.889-11.882 28.191-14.203 37.123-5.271 4.469 4.467 6.239 10.946 4.987 18.239-1.153 6.717-4.797 13.423-10.261 18.886-7.015 7.017-15.576 10.7-23.249 10.7zm14.715-44.129c-5.312 0-11.75 2.838-16.901 7.987-8.012 8.014-10.428 19.142-5.274 24.301 5.164 5.161 16.286 2.74 24.295-5.273h.001c4.149-4.149 6.896-9.124 7.735-14.008.74-4.308-.134-7.964-2.461-10.29-1.841-1.84-4.444-2.717-7.395-2.717z" />
        <path fill="#161616"
            d="M816.565 2059.002a4.536 4.536 0 0 1-.137-9.068l1.329-.035c7.147-.174 10.106-.245 11.412-11.965.741-6.658 3.245-11.64 7.439-14.808 5.755-4.344 12.314-3.387 13.044-3.275a4.537 4.537 0 0 1 3.722 5.223 4.526 4.526 0 0 1-5.179 3.729c-.158-.018-3.542-.434-6.189 1.612-2.086 1.615-3.372 4.482-3.822 8.522-2.183 19.591-12.602 19.845-20.208 20.028l-1.267.032c-.048.005-.097.005-.144.005zM814.97 2090.006h35.527v9.449H814.97z" />
        <g>
            <path fill="#161616" d="M918.145 2138.595h35.527v9.449h-35.527z" />
        </g>
    </g>
    <g>
        <path fill="#9AE8CE"
            d="M91.984 226.315h82.715v12.171H91.984zM203.306 190.486H30.061v11.339c0 4.893 2.575 8.66 7.437 8.66h165.809v-19.999z" />
        <path fill="#F4F4F4"
            d="M124.798 210.485h17.092v15.83h-17.092zM136.142 200.791a2.803 2.803 0 0 1-2.802 2.802 2.802 2.802 0 0 1 0-5.604 2.803 2.803 0 0 1 2.802 2.802z" />
        <path fill="#AA6148"
            d="M226.521 43.417H40.162c-5.578 0-10.101 4.523-10.101 10.101v11.767h206.561V53.518c0-5.578-4.524-10.101-10.101-10.101z" />
        <path fill="#AEF4DB"
            d="M43.415 201.825v-11.339H30.186v11.339c0 4.893 2.575 8.66 7.437 8.66h13.228c-4.861 0-7.436-3.768-7.436-8.66z" />
        <path fill="#BC715C"
            d="M53.516 43.417H40.288c-5.578 0-10.101 4.523-10.101 10.101v11.767h13.228V53.518c0-5.578 4.523-10.101 10.101-10.101z" />
        <path fill="#F4F4F4"
            d="M219.7 54.351a3.068 3.068 0 1 1-6.138 0 3.07 3.07 0 0 1 6.138 0zM206.882 54.351a3.068 3.068 0 0 1-3.07 3.071 3.07 3.07 0 1 1 3.07-3.071zM193.636 54.351a3.07 3.07 0 1 1-6.142.004 3.07 3.07 0 0 1 6.142-.004zM203.305 156.093h66.634v84.708h-66.634z" />
        <path fill="#9AE8CE"
            d="M203.306 247.459a9.124 9.124 0 0 0 9.126 9.124h48.383a9.125 9.125 0 0 0 9.124-9.124v-6.658h-66.633v6.658zM269.939 151.894c0-5.037-4.086-9.124-9.124-9.124h-48.383c-5.04 0-9.126 4.087-9.126 9.124v4.199h66.633v-4.199z" />
        <path fill="#AEF4DB"
            d="M213.561 247.459v-6.658h-10.255v6.658a9.124 9.124 0 0 0 9.126 9.124h10.255a9.124 9.124 0 0 1-9.126-9.124zM222.686 142.77h-10.255c-5.04 0-9.126 4.087-9.126 9.124v4.199h10.255v-4.199a9.127 9.127 0 0 1 9.126-9.124z" />
        <path fill="#F4F4F4"
            d="M238.935 248.691a2.31 2.31 0 0 1-2.312 2.312 2.31 2.31 0 1 1 0-4.621 2.309 2.309 0 0 1 2.312 2.309zM212.43 142.77h24.192V65.285H30.061v125.202h173.244v-38.592a9.126 9.126 0 0 1 9.125-9.125z" />
        <path fill="#FFDA88"
            d="M173.253 118.948c0 22.039-17.868 39.909-39.911 39.909-22.042 0-39.91-17.87-39.91-39.909 0-22.042 17.868-39.912 39.91-39.912 22.043 0 39.911 17.87 39.911 39.912z" />
        <path fill="#FFE2A9"
            d="M107.675 118.948c0-19.606 14.151-35.879 32.79-39.242-2.315-.419-4.688-.67-7.122-.67-22.042 0-39.91 17.87-39.91 39.912 0 22.039 17.868 39.909 39.91 39.909 2.435 0 4.807-.254 7.122-.67-18.639-3.364-32.79-19.633-32.79-39.239z" />
        <path fill="#AA6148"
            d="M146.184 131.739c-9.933 9.939-23.687 12.295-30.712 5.273-7.019-7.028-4.662-20.775 5.277-30.711 9.933-9.936 23.681-12.298 30.708-5.271 7.025 7.025 4.666 20.776-5.273 30.709z" />
        <path fill="#BC715C"
            d="M125.816 110.952c8.569-8.569 19.961-11.486 27.443-7.63-.525-.844-1.119-1.651-1.837-2.368-7.027-7.024-20.775-4.665-30.709 5.274-9.939 9.933-12.295 23.684-5.276 30.708a12.9 12.9 0 0 0 3.266 2.356c-4.597-7.444-1.81-19.423 7.113-28.34z" />
        <path fill="#BC715C"
            d="M118.311 138.206c-2.288 0-4.175-1.828-4.246-4.14a4.265 4.265 0 0 1 4.119-4.405l.546-.018c6.945-.207 10.113-.301 11.394-11.832 1.719-15.522 13.128-18.51 18.921-17.902 2.339.236 4.04 2.336 3.803 4.683a4.255 4.255 0 0 1-4.624 3.821c-1.417-.109-8.495-.106-9.656 10.346-2.097 18.903-12.207 19.205-19.588 19.429l-.537.018h-.132z" />
        <path fill="#AA6148" d="M115.685 169.808h35.527v9.449h-35.527zM218.86 218.398h35.527v9.449H218.86z" />
        <path fill="#F9F9F9" d="M203.305 156.093h10.256v84.708h-10.256zM30.061 65.285h13.296v125.201H30.061z" />
        <g>
            <path fill="#F9F9F9" d="M124.798 210.485h8.651v15.83h-8.651z" />
        </g>
        <g>
            <path fill="#AEF4DB" d="M91.984 226.315h8.651v12.171h-8.651z" />
        </g>
        <g>
            <path fill="#161616"
                d="M174.699 243.021H91.984a4.535 4.535 0 0 1-4.535-4.535v-12.171a4.535 4.535 0 0 1 4.535-4.535h82.715a4.536 4.536 0 0 1 4.535 4.535v12.171a4.535 4.535 0 0 1-4.535 4.535zm-78.18-9.07h73.644v-3.1H96.519v3.1z" />
            <path fill="#161616"
                d="M141.89 230.85h-17.092a4.535 4.535 0 0 1-4.535-4.535v-15.83a4.535 4.535 0 0 1 4.535-4.535h17.092a4.535 4.535 0 0 1 4.535 4.535v15.83a4.535 4.535 0 0 1-4.535 4.535zm-12.557-9.071h8.021v-6.759h-8.021v6.759zM136.142 200.791a2.803 2.803 0 0 1-2.802 2.802 2.802 2.802 0 0 1 0-5.604 2.803 2.803 0 0 1 2.802 2.802zM236.622 69.82H30.061a4.536 4.536 0 0 1-4.535-4.535V53.518c0-8.07 6.565-14.637 14.637-14.637h186.358c8.071 0 14.637 6.567 14.637 14.637v11.767a4.537 4.537 0 0 1-4.536 4.535zM34.596 60.749h197.49v-7.231a5.573 5.573 0 0 0-5.566-5.566H40.162a5.573 5.573 0 0 0-5.566 5.566v7.231z" />
            <path fill="#161616"
                d="M219.7 54.351a3.068 3.068 0 1 1-6.138 0 3.07 3.07 0 0 1 6.138 0zM206.882 54.351a3.068 3.068 0 0 1-3.07 3.071 3.07 3.07 0 1 1 3.07-3.071zM193.636 54.351a3.07 3.07 0 1 1-6.142.004 3.07 3.07 0 0 1 6.142-.004zM269.938 245.336h-66.633a4.535 4.535 0 0 1-4.535-4.535v-84.708a4.535 4.535 0 0 1 4.535-4.535h66.633a4.535 4.535 0 0 1 4.535 4.535v43.931a4.535 4.535 0 0 1-9.07 0v-39.395H207.84v75.637h57.562v-15.319a4.535 4.535 0 0 1 9.07 0v19.854a4.534 4.534 0 0 1-4.534 4.535z" />
            <path fill="#161616"
                d="M260.814 261.118h-48.382c-7.532 0-13.661-6.127-13.661-13.659v-6.658a4.535 4.535 0 0 1 4.535-4.535h66.633a4.536 4.536 0 0 1 4.535 4.535v6.658c0 7.533-6.128 13.659-13.66 13.659zm-52.972-15.782v2.123a4.595 4.595 0 0 0 4.59 4.589h48.382c2.53 0 4.59-2.058 4.59-4.589v-2.123h-57.562zM269.939 160.628h-66.633a4.535 4.535 0 0 1-4.535-4.535v-4.199c0-7.532 6.128-13.659 13.661-13.659h48.382c7.532 0 13.661 6.127 13.661 13.659v4.199a4.537 4.537 0 0 1-4.536 4.535zm-62.085-9.07h57.538a4.595 4.595 0 0 0-4.578-4.252h-48.382a4.594 4.594 0 0 0-4.578 4.252z" />
            <path fill="#161616"
                d="M238.935 248.691a2.311 2.311 0 1 1-4.622.002 2.311 2.311 0 0 1 4.622-.002zM203.305 195.022H30.061a4.535 4.535 0 0 1-4.535-4.535v-86.462a4.535 4.535 0 0 1 9.07 0v81.926h164.173v-34.057c0-7.532 6.128-13.659 13.661-13.659h19.656V69.82H34.596v13.281a4.535 4.535 0 0 1-9.07 0V65.285a4.535 4.535 0 0 1 4.535-4.535h206.561a4.535 4.535 0 0 1 4.535 4.535v77.485a4.535 4.535 0 0 1-4.535 4.535H212.43a4.594 4.594 0 0 0-4.59 4.589v38.592a4.536 4.536 0 0 1-4.535 4.536z" />
            <path fill="#161616"
                d="M203.306 215.02H37.497c-7.048 0-11.972-5.427-11.972-13.196v-11.339a4.535 4.535 0 0 1 4.535-4.535h173.245a4.536 4.536 0 0 1 4.535 4.535v19.999a4.533 4.533 0 0 1-4.534 4.536zm-168.71-19.998v6.803c0 2.737.976 4.125 2.901 4.125h161.274v-10.928H34.596zM133.343 163.392c-24.508 0-44.446-19.937-44.446-44.445S108.835 74.5 133.343 74.5s44.446 19.94 44.446 44.447c0 24.508-19.938 44.445-44.446 44.445zm0-79.821c-19.506 0-35.375 15.871-35.375 35.377s15.869 35.374 35.375 35.374 35.375-15.868 35.375-35.374-15.869-35.377-35.375-35.377z" />
            <path fill="#161616"
                d="M126.017 145.572c-5.321 0-10.215-1.769-13.875-5.427-8.928-8.935-6.61-25.243 5.275-37.128 11.889-11.882 28.191-14.203 37.123-5.271 4.469 4.467 6.239 10.946 4.987 18.239-1.153 6.717-4.797 13.423-10.261 18.886-7.015 7.019-15.576 10.701-23.249 10.701zm14.715-44.128c-5.312 0-11.75 2.838-16.901 7.987-8.012 8.014-10.428 19.143-5.274 24.301 5.164 5.161 16.286 2.74 24.295-5.273h.001c4.149-4.149 6.896-9.124 7.735-14.008.74-4.308-.134-7.964-2.461-10.29-1.841-1.84-4.444-2.717-7.395-2.717z" />
            <path fill="#161616"
                d="M117.28 138.805a4.536 4.536 0 0 1-.137-9.068l1.329-.035c7.147-.174 10.106-.245 11.412-11.965.741-6.658 3.245-11.64 7.439-14.808 5.755-4.343 12.314-3.387 13.044-3.275a4.537 4.537 0 0 1 3.722 5.223 4.526 4.526 0 0 1-5.179 3.729c-.158-.018-3.542-.434-6.189 1.612-2.086 1.615-3.372 4.482-3.822 8.522-2.184 19.591-12.602 19.845-20.208 20.028l-1.267.033c-.048.004-.097.004-.144.004zM115.685 169.808h35.527v9.449h-35.527z" />
            <g>
                <path fill="#161616" d="M218.86 218.398h35.527v9.449H218.86z" />
            </g>
        </g>
    </g>
</svg>