<svg xmlns="http://www.w3.org/2000/svg" viewBox="0 0 512 512">
    <defs>
        <style>
            .cls-1 {
                fill: #559aff;
            }

            .cls-4 {
                fill: #00cd6c;
            }

            .cls-5 {
                fill: #f6edff;
            }

            .cls-6 {
                fill: #8cf3be;
            }
        </style>
    </defs>
    <g id="Price_Tag_Dollar" data-name="Price Tag Dollar">
        <path class="cls-1"
            d="M394.667 21.333a96 96 0 1 0 96 96 96 96 0 0 0-96-96zm0 170.667a74.667 74.667 0 1 1 74.666-74.667A74.667 74.667 0 0 1 394.667 192z" />
        <path
            d="M394.667 21.333a96 96 0 0 0-96 96V117.804l.001.032v.158l.001.046v.079l.001.027V118.227l.001.048v.034l.001.043v.078l.001.039v.04l.001.036v.041l.001.04v.038l.001.04v.038l.001.043v.033l.002.044v.079l.001.034.001.042v.038l.001.038.001.042v.034l.002.044v.036l.001.043v.033l.002.045v.035l.001.042.001.034.001.045.001.035.001.043v.033l.002.046v.033l.002.045v.032l.002.046v.034l.002.043v.033l.002.045v.035l.002.045v.03l.002.048.001.033.002.048v.026l.002.055v.024l.003.058v.018l.002.056v.025l.003.055v.021l.002.059v.02l.006.142v.013q.028.784.068 1.563v.006l.017.308a96.057 96.057 0 0 0 1.88 14.367 10.667 10.667 0 0 0 20.883-4.36 74.752 74.752 0 0 1 73.09-90.022 10.667 10.667 0 0 0 0-21.334z"
            style="fill: #1172ff" />
        <path
            d="M362.667 106.667H252.34a42.67 42.67 0 0 0-30.17 12.496L33.83 307.503a42.666 42.666 0 0 0 0 60.34l110.328 110.326a42.666 42.666 0 0 0 60.34 0l188.338-188.34a42.662 42.662 0 0 0 12.497-30.169V149.333a42.666 42.666 0 0 0-42.666-42.666zm-32 106.666a32 32 0 1 1 32-32 32 32 0 0 1-32 32z"
            style="fill: #19e77c" />
        <path class="cls-4"
            d="M330.667 128a53.333 53.333 0 1 1-10.123 105.703 10.667 10.667 0 1 1 4.035-20.948h.003a32.06 32.06 0 0 0 4.531.541h.001l.046.002h.003l.043.003h.006l.04.002h.01l.036.002h.015l.034.002h.016l.033.002h.016l.034.001.016.001.031.001h.02l.03.002h.018l.032.002h.017l.033.001h.018l.03.002h.019l.161.005h.047l.02.001h.028l.024.001h.024l.025.001h.026l.026.001h.022l.028.001h.05l.023.001h.05l.028.001H330.365l.027.001H330.496l.02.001H330.666a32 32 0 0 0 32-32 32 32 0 0 0-32-32 10.667 10.667 0 1 1 0-21.333z" />
        <path class="cls-4"
            d="M394.667 161.127A10.667 10.667 0 0 0 384 171.794v87.866a21.19 21.19 0 0 1-6.25 15.085l-188.338 188.34a21.332 21.332 0 0 1-30.17 0l-10.306-10.307a10.667 10.667 0 0 0-15.085 15.085l10.307 10.306a42.666 42.666 0 0 0 60.34 0l.12-.12.002-.002.083-.084.162-.162.004-.004.364-.363.025-.026.465-.465.101-.1.022-.022.022-.022.1-.101.705-.705.031-.03.027-.027.096-.096.02-.02 1.942-1.942.05-.051.195-.195.032-.031.09-.091.113-.112.01-.01.108-.109.015-.014.196-.197.05-.049.198-.199.046-.046.049-.048.074-.074.053-.054.07-.07.093-.092.03-.03.068-.068.054-.054.046-.046.322-.322.016-.017 171.524-171.524.161-.162.084-.084.055-.055.19-.19.04-.039.206-.206.02-.02.96-.961.039-.038.697-.698.199-.198.046-.047.11-.11.013-.013.104-.104.019-.018.058-.059.064-.064.013-.012.11-.11.228-.229.14-.14.19-.19.055-.055.474-.473.016-.017.323-.322.045-.046.054-.054.069-.069.03-.03.093-.092.069-.07.053-.053.074-.074.049-.048.046-.047.199-.199.049-.048.196-.197.015-.015.108-.107.01-.011.112-.112.092-.091.031-.032.195-.194.05-.05 1.942-1.942.02-.02.097-.097.026-.026.03-.031.705-.705.101-.101.022-.022.022-.022.1-.1.466-.466.025-.025.364-.363.004-.005.162-.162.083-.083.003-.003.12-.12a42.663 42.663 0 0 0 12.497-30.169v-87.866a10.667 10.667 0 0 0-10.666-10.667z" />
        <path class="cls-5"
            d="m294.249 272.915-46.327-46.327a45.255 45.255 0 0 0-64 64l37.49 37.49a15.085 15.085 0 0 1-21.334 21.334l-46.326-46.327a15.085 15.085 0 0 0-21.334 21.333l46.327 46.327a45.255 45.255 0 0 0 64-64l-37.49-37.49a15.085 15.085 0 0 1 21.333-21.333l46.327 46.327a15.085 15.085 0 1 0 21.334-21.334z" />
        <rect class="cls-5" x="235.203" y="227.124" width="69.176" height="30.17" rx="15.085" ry="15.085"
            transform="rotate(-45 269.79 242.21)" />
        <rect class="cls-5" x="123.203" y="342.248" width="62.928" height="30.17" rx="15.085" ry="15.085"
            transform="rotate(-45 154.667 357.333)" />
        <rect class="cls-6" x="31.242" y="283.582" width="108.183" height="30.17" rx="15.085" ry="15.085"
            transform="rotate(-45 85.333 298.667)" />
        <rect class="cls-6" x="107.739" y="176.915" width="168.523" height="30.17" rx="15.085" ry="15.085"
            transform="rotate(-45 192 192)" />
        <path class="cls-1"
            d="M394.667 192a74.354 74.354 0 0 1-52.147-21.333H320v6.326c17.592 21.984 44.322 36.34 74.667 36.34A95.518 95.518 0 0 0 448 197.123v-26.456h-1.186A74.354 74.354 0 0 1 394.667 192z" />
    </g>
</svg>