<svg xmlns="http://www.w3.org/2000/svg" xml:space="preserve" width="100" height="100" style="
                  shape-rendering: geometricPrecision;
                  text-rendering: geometricPrecision;
                  image-rendering: optimizeQuality;
                  fill-rule: evenodd;
                  clip-rule: evenodd;
                " viewBox="0 0 6.827 6.827">
    <defs>
        <style>
            .fil5 {
                fill: #1b75bc;
            }
        </style>
    </defs>
    <g id="Layer_x0020_1">
        <g id="_686995560">
            <g id="Layer_17">
                <path id="_686997048" style="fill: #dde2e4" d="M.957 2.073h4.912v3.176H.957z" />
                <path id="_686996568" style="fill: #a7bdc6" d="M.957 1.577h4.912v.496H.957z" />
                <path id="_686996856"
                    d="M1.367 1.904h-.079a.071.071 0 0 1-.07-.071v-.004c0-.039.031-.07.07-.07h.08c.039 0 .07.031.07.07v.004c0 .039-.031.07-.07.07z"
                    style="fill: #be1e2d" />
                <path id="_686996808"
                    d="M1.715 1.904h-.079a.071.071 0 0 1-.07-.071v-.004c0-.039.031-.07.07-.07h.08c.039 0 .07.031.07.07v.004a.07.07 0 0 1-.07.07z"
                    style="fill: #ffde17" />
                <path id="_686996760"
                    d="M2.063 1.904h-.079a.071.071 0 0 1-.07-.071v-.004c0-.039.031-.07.07-.07h.08c.039 0 .07.031.07.07v.004c0 .039-.031.07-.07.07z"
                    style="fill: #39b54a" />
                <g>
                    <path id="_686997168" class="fil5"
                        d="M2.982 3.969a.05.05 0 0 1-.035-.015l-.23-.229a.05.05 0 0 1 0-.07l.23-.23a.05.05 0 1 1 .07.071l-.193.194.194.194a.05.05 0 0 1-.036.085z" />
                    <path id="_686996448" class="fil5"
                        d="M3.844 3.969a.05.05 0 0 1-.035-.085l.194-.194-.194-.194a.05.05 0 1 1 .07-.07l.23.229a.05.05 0 0 1 0 .07l-.23.23a.05.05 0 0 1-.035.014z" />
                    <path id="_686995992" class="fil5"
                        d="M3.298 4.273c-.004 0-.008 0-.012-.002a.05.05 0 0 1-.036-.06l.264-1.058a.05.05 0 0 1 .097.024l-.264 1.058a.05.05 0 0 1-.049.038z" />
                </g>
            </g>
        </g>
    </g>
    <path style="fill: none" d="M0 0h6.827v6.827H0z" />
</svg>